<?xml version="1.0" standalone="no"?>
<!DOCTYPE svg PUBLIC "-//W3C//DTD SVG 20010904//EN"
 "http://www.w3.org/TR/2001/REC-SVG-20010904/DTD/svg10.dtd">
<svg version="1.0" xmlns="http://www.w3.org/2000/svg"
 width="300.000000pt" height="300.000000pt" viewBox="0 0 300.000000 300.000000"
 preserveAspectRatio="xMidYMid meet">
<metadata>
Created by potrace 1.10, written by Peter Selinger 2001-2011
</metadata>
<g transform="translate(0.000000,300.000000) scale(0.100000,-0.100000)"
fill="#000000" stroke="none">
<path d="M1452 2566 c-109 -21 -207 -53 -294 -97 -82 -41 -99 -59 -78 -84 18
-22 39 -19 116 20 337 166 769 116 1064 -123 263 -213 408 -558 371 -879 -11
-91 -43 -238 -55 -250 -2 -3 -10 13 -16 36 -6 22 -19 45 -28 50 -22 12 -52 -4
-52 -27 0 -35 58 -195 74 -204 13 -7 39 5 107 48 80 50 90 59 87 83 -4 32 -41
41 -69 15 -10 -9 -21 -15 -24 -13 -2 3 4 32 15 65 31 100 43 217 37 348 -13
286 -124 525 -335 727 -147 140 -314 230 -509 275 -97 21 -320 27 -411 10z
m1184 -1437 c19 -21 19 -21 -11 -45 -36 -29 -51 -30 -65 -5 -17 33 -13 60 9
54 10 -3 22 0 25 6 10 16 21 14 42 -10z"/>
<path d="M309 2183 c-59 -36 -59 -35 -59 -466 0 -385 1 -395 21 -421 44 -56
41 -56 508 -56 l429 0 12 -69 c23 -136 105 -268 216 -347 212 -152 496 -135
682 39 187 176 230 433 109 661 -35 65 -134 171 -188 199 l-34 19 0 186 c0
167 -2 190 -19 215 -40 59 -4 57 -863 57 -711 -1 -791 -2 -814 -17z m1599 -69
c21 -15 22 -21 22 -179 l0 -163 -42 13 -43 12 -5 64 c-5 63 -5 64 -37 67 -38
4 -83 46 -83 78 0 56 18 54 -598 52 l-567 -3 -13 -30 c-28 -67 -39 -80 -67
-89 -63 -18 -60 -6 -60 -217 l0 -194 40 -13 c52 -17 72 -36 82 -80 l9 -37 342
-3 341 -2 -6 -33 c-3 -17 -7 -33 -8 -35 -1 -2 -198 -3 -436 -2 -395 0 -435 2
-446 17 -10 13 -13 106 -13 385 0 355 1 369 20 388 20 20 33 20 783 20 674 0
765 -2 785 -16z m-258 -149 c0 -22 56 -81 90 -95 24 -10 30 -19 30 -41 0 -28
-2 -29 -48 -29 -66 0 -154 -24 -226 -63 -79 -41 -183 -146 -220 -219 l-28 -58
-324 0 c-295 0 -324 1 -324 17 0 27 -48 81 -85 94 l-35 13 0 137 0 137 28 10
c35 12 81 58 88 89 l6 23 524 0 c454 0 524 -2 524 -15z m191 -245 c217 -41
378 -238 379 -461 0 -280 -257 -501 -534 -459 -229 34 -396 228 -396 459 0
295 264 515 551 461z"/>
<path d="M1044 1871 c-68 -42 -103 -120 -84 -191 37 -138 202 -175 297 -67 70
80 46 209 -48 257 -49 26 -124 26 -165 1z m154 -86 c26 -31 30 -90 7 -122 -20
-29 -75 -46 -107 -34 -36 14 -68 58 -68 95 1 85 112 125 168 61z"/>
<path d="M1727 1544 c-4 -4 -7 -18 -7 -30 0 -19 -8 -25 -42 -35 -23 -6 -57
-26 -75 -44 -91 -91 10 -215 175 -215 33 0 92 -34 92 -53 0 -49 -125 -74 -219
-43 -52 17 -76 14 -85 -10 -13 -34 22 -55 127 -78 20 -5 27 -12 27 -31 0 -48
65 -41 72 8 2 14 14 24 37 30 46 12 79 35 97 68 44 86 -22 169 -146 184 -116
14 -161 45 -124 86 37 41 118 46 212 12 47 -17 72 -7 72 28 0 25 -34 46 -97
59 -45 10 -52 15 -55 38 -2 20 -9 28 -28 30 -14 2 -29 0 -33 -4z"/>
<path d="M667 1063 c-9 -17 -29 -203 -23 -218 4 -11 15 -15 33 -13 24 3 29 9
36 46 l8 44 29 -45 c40 -63 152 -179 229 -238 94 -71 267 -155 386 -186 87
-23 120 -26 260 -26 178 -1 246 10 393 66 146 55 244 119 370 243 99 97 113
116 110 140 -2 22 -9 30 -28 32 -20 2 -33 -7 -64 -48 -145 -190 -426 -338
-683 -358 -361 -29 -687 119 -908 411 -37 49 -34 57 15 32 31 -16 55 -12 64
12 11 27 -11 46 -95 79 -81 33 -124 42 -132 27z m94 -59 c29 -14 30 -17 15
-33 -9 -10 -16 -22 -16 -27 0 -5 -16 -9 -35 -10 -37 -1 -43 11 -29 64 7 26 24
28 65 6z"/>
</g>
</svg>
