<?xml version="1.0" standalone="no"?>
<!DOCTYPE svg PUBLIC "-//W3C//DTD SVG 20010904//EN"
 "http://www.w3.org/TR/2001/REC-SVG-20010904/DTD/svg10.dtd">
<svg version="1.0" xmlns="http://www.w3.org/2000/svg"
 width="64.000000pt" height="64.000000pt" viewBox="0 0 64.000000 64.000000"
 preserveAspectRatio="xMidYMid meet">
<metadata>
Created by potrace 1.10, written by Peter Selinger 2001-2011
</metadata>
<g transform="translate(0.000000,64.000000) scale(0.100000,-0.100000)"
fill="#000000" stroke="none">
<path d="M222 574 c-61 -23 -136 -101 -157 -164 -43 -131 17 -274 140 -335 55
-28 175 -28 230 0 50 25 105 80 130 130 28 55 28 175 0 230 -25 51 -80 105
-130 130 -53 25 -156 29 -213 9z m204 -30 c88 -42 138 -124 138 -224 0 -228
-266 -332 -426 -167 -38 39 -68 113 -68 167 0 97 78 206 168 235 57 18 136 13
188 -11z"/>
<path d="M250 442 l-65 -38 0 -84 0 -85 68 -39 67 -38 68 38 67 39 0 85 0 84
-65 38 c-36 21 -67 38 -70 38 -3 0 -34 -17 -70 -38z m127 -17 l51 -29 -54 -33
-54 -32 -54 32 -54 32 52 31 c28 18 53 32 56 31 3 -1 28 -15 57 -32z m-67
-173 l0 -64 -52 31 -53 30 -3 65 -3 65 55 -32 55 -32 1 -63z m123 -2 c-4 -4
-29 -20 -55 -35 l-48 -27 0 64 1 63 52 30 52 30 3 -59 c2 -32 -1 -62 -5 -66z"/>
</g>
</svg>
