<?xml version="1.0" standalone="no"?>
<!DOCTYPE svg PUBLIC "-//W3C//DTD SVG 20010904//EN"
 "http://www.w3.org/TR/2001/REC-SVG-20010904/DTD/svg10.dtd">
<svg version="1.0" xmlns="http://www.w3.org/2000/svg"
 width="100.000000pt" height="100.000000pt" viewBox="0 0 100.000000 100.000000"
 preserveAspectRatio="xMidYMid meet">
<metadata>
Created by potrace 1.10, written by Peter Selinger 2001-2011
</metadata>
<g transform="translate(0.000000,100.000000) scale(0.100000,-0.100000)"
fill="#000000" stroke="none">
<path d="M413 909 c-74 -36 -108 -128 -84 -229 6 -28 6 -49 0 -55 -13 -13 -11
-46 5 -75 67 -120 82 -187 47 -216 -10 -9 -54 -32 -97 -50 -109 -48 -164 -107
-164 -178 l0 -26 400 0 400 0 0 25 c0 72 -53 131 -161 178 -122 54 -119 51
-119 105 0 26 7 56 15 66 8 11 15 27 15 35 0 8 9 25 21 37 19 20 22 40 19 109
-1 11 2 52 5 90 7 83 -11 131 -60 155 -16 8 -41 23 -55 33 -36 25 -133 23
-187 -4z m169 -32 c7 -7 27 -19 44 -26 52 -21 68 -88 43 -187 -8 -31 -8 -48
-1 -57 14 -17 4 -57 -14 -57 -8 0 -14 -8 -14 -18 0 -10 -9 -35 -20 -57 -12
-24 -20 -59 -20 -90 0 -65 13 -78 142 -139 85 -41 100 -52 118 -86 l20 -40
-49 0 -50 0 -3 37 -3 38 -95 0 -95 0 -3 -37 -3 -38 -209 0 c-195 0 -209 1
-203 17 17 46 43 67 132 109 128 61 141 74 141 141 0 35 -7 63 -20 85 -11 18
-20 43 -20 56 0 13 -6 22 -15 22 -18 0 -31 46 -17 63 8 9 8 32 0 78 -22 129
28 199 143 199 34 0 63 -5 71 -13z m158 -737 c0 -18 -7 -20 -60 -20 -53 0 -60
2 -60 20 0 18 7 20 60 20 53 0 60 -2 60 -20z"/>
</g>
</svg>
