<?xml version="1.0" standalone="no"?>
<!DOCTYPE svg PUBLIC "-//W3C//DTD SVG 20010904//EN"
 "http://www.w3.org/TR/2001/REC-SVG-20010904/DTD/svg10.dtd">
<svg version="1.0" xmlns="http://www.w3.org/2000/svg"
 width="100.000000pt" height="100.000000pt" viewBox="0 0 100.000000 100.000000"
 preserveAspectRatio="xMidYMid meet">
<metadata>
Created by potrace 1.10, written by Peter Selinger 2001-2011
</metadata>
<g transform="translate(0.000000,100.000000) scale(0.100000,-0.100000)"
fill="#000000" stroke="none">
<path d="M460 911 c-119 -37 -160 -103 -156 -251 3 -95 10 -130 27 -130 5 0 9
-6 9 -13 0 -7 9 -30 20 -52 24 -48 26 -107 4 -126 -9 -8 -57 -34 -107 -59
-107 -52 -149 -97 -151 -157 l-1 -38 389 -3 c233 -1 394 2 399 7 17 17 -3 80
-36 118 -20 23 -63 51 -117 76 -107 49 -120 61 -120 107 0 42 35 129 58 146
12 9 16 36 16 125 1 136 -13 171 -83 205 -24 12 -48 28 -53 38 -10 17 -53 20
-98 7z m78 -48 c5 -9 24 -21 42 -27 18 -6 42 -23 52 -37 25 -33 34 -101 19
-138 -10 -23 -10 -33 0 -50 12 -17 10 -24 -9 -50 -12 -17 -22 -34 -22 -38 0
-5 -9 -26 -21 -47 -15 -28 -20 -53 -18 -94 l3 -56 -42 -15 c-38 -14 -46 -14
-84 0 l-42 15 3 56 c2 42 -3 64 -18 89 -12 19 -21 40 -21 47 0 7 -10 26 -22
42 -18 25 -20 33 -9 53 9 17 9 30 2 51 -34 87 17 176 117 206 43 13 60 11 70
-7z m-115 -582 c54 -23 63 -49 41 -115 l-16 -46 -153 0 c-141 0 -153 1 -149
17 10 39 45 67 135 113 52 26 95 48 96 49 1 0 21 -8 46 -18z m397 -93 c15 -15
30 -36 33 -47 5 -21 2 -21 -148 -21 l-153 0 -16 46 c-22 64 -13 92 38 113 l41
18 89 -41 c49 -22 101 -53 116 -68z"/>
</g>
</svg>
