<?xml version="1.0" standalone="no"?>
<!DOCTYPE svg PUBLIC "-//W3C//DTD SVG 20010904//EN"
 "http://www.w3.org/TR/2001/REC-SVG-20010904/DTD/svg10.dtd">
<svg version="1.0" xmlns="http://www.w3.org/2000/svg"
 width="150.000000pt" height="150.000000pt" viewBox="0 0 150.000000 150.000000"
 preserveAspectRatio="xMidYMid meet">
<metadata>
Created by potrace 1.10, written by Peter Selinger 2001-2011
</metadata>
<g transform="translate(0.000000,150.000000) scale(0.100000,-0.100000)"
fill="#000000" stroke="none">
<path d="M580 1409 c-36 -10 -81 -24 -100 -31 -155 -58 -320 -223 -378 -378
-68 -185 -68 -335 0 -520 58 -155 223 -320 378 -378 80 -30 179 -52 233 -52
l58 0 -3 58 -3 57 -65 6 c-196 17 -384 141 -465 306 -115 235 -76 482 105 663
81 81 146 119 259 151 79 23 209 24 266 4 22 -8 45 -15 51 -15 12 0 78 -30
123 -55 41 -23 131 -106 125 -116 -3 -5 -36 -9 -73 -9 -58 0 -71 -3 -89 -23
-28 -30 -28 -48 1 -75 22 -21 33 -22 173 -22 202 0 194 -8 194 196 0 168 -8
194 -60 194 -40 0 -60 -32 -60 -97 0 -29 -4 -53 -8 -53 -5 0 -27 17 -49 39
-147 139 -418 206 -613 150z"/>
<path d="M624 1124 c-29 -30 -34 -43 -34 -83 0 -43 -4 -51 -52 -98 l-53 -52
-95 -3 c-94 -3 -95 -3 -95 -28 0 -25 0 -25 110 -28 l110 -3 60 61 c56 57 62
60 107 60 41 0 52 5 83 35 26 27 35 44 35 70 0 26 -9 43 -35 70 -50 49 -95 49
-141 -1z"/>
<path d="M725 770 l-89 -90 -171 -2 -170 -3 0 -25 0 -25 185 -3 184 -2 91 90
90 90 170 2 170 3 0 25 0 25 -185 3 -185 2 -90 -90z"/>
<path d="M1307 678 c-7 -74 4 -88 65 -88 46 0 52 11 53 90 l0 55 -56 3 -56 3
-6 -63z"/>
<path d="M905 590 c-56 -57 -62 -60 -107 -60 -41 0 -52 -5 -83 -35 -26 -27
-35 -44 -35 -70 0 -26 9 -43 35 -70 49 -48 91 -48 140 0 30 31 35 42 35 83 0
44 4 51 53 99 l52 52 95 3 c94 3 95 3 95 28 0 25 0 25 -110 28 l-110 3 -60
-61z"/>
<path d="M1254 495 c-3 -13 -12 -29 -20 -36 -8 -6 -14 -24 -14 -39 0 -21 8
-33 36 -49 19 -12 39 -21 44 -21 15 0 71 101 68 122 -2 13 -17 25 -43 34 -55
19 -64 18 -71 -11z"/>
<path d="M1102 302 c-23 -20 -42 -43 -42 -51 0 -22 43 -81 59 -81 24 0 101 70
101 91 0 17 -55 79 -70 79 -3 0 -24 -17 -48 -38z"/>
<path d="M935 207 c-75 -24 -75 -24 -75 -69 0 -61 9 -71 56 -62 43 7 89 28 99
44 7 11 -21 74 -38 88 -7 5 -25 5 -42 -1z"/>
</g>
</svg>
